Coordinates
version=1
nRows=17
nColumns=40
inDegrees=yes

Units are S.I. units (second, meters, Newtons, ...)
If the header above contains a line with 'inDegrees', this indicates whether rotational values are in degrees (yes) or radians (no).

endheader
time	pelvis_tilt	pelvis_list	pelvis_rotation	pelvis_tx	pelvis_ty	pelvis_tz	hip_flexion_r	hip_adduction_r	hip_rotation_r	knee_angle_r	knee_angle_r_beta	ankle_angle_r	subtalar_angle_r	mtp_angle_r	hip_flexion_l	hip_adduction_l	hip_rotation_l	knee_angle_l	knee_angle_l_beta	ankle_angle_l	subtalar_angle_l	mtp_angle_l	lumbar_extension	lumbar_bending	lumbar_rotation	arm_flex_r	arm_add_r	arm_rot_r	elbow_flex_r	pro_sup_r	wrist_flex_r	wrist_dev_r	arm_flex_l	arm_add_l	arm_rot_l	elbow_flex_l	pro_sup_l	wrist_flex_l	wrist_dev_l
      1.43000000	      0.88264550	     -7.21061548	     88.66586542	      0.19151118	      0.87318496	     -0.55337744	    -16.85445880	      4.60814304	      4.66389447	      9.49353133	      0.16569338	      7.59363991	      0.00000000	      0.00000000	     37.99596724	     -0.80216109	     -0.34462433	      8.15510596	      0.14233345	      0.96408043	      0.00000000	      0.00000000	      3.76667200	     -1.94521869	      6.30307517	      0.00000000	      0.00000000	      0.00000000	      0.00000000	      0.00000000	      0.00000000	      0.00000000	      0.00000000	      0.00000000	      0.00000000	      0.00000000	      0.00000000	      0.00000000	      0.00000000
      1.44000000	      0.29613358	     -7.34274108	     88.50009124	      0.19054575	      0.87345278	     -0.57437156	    -15.77421102	      3.70368107	      2.85907249	     13.06163187	      0.22796848	      4.77088696	     -0.00000000	      0.00000000	     38.14533770	     -0.26598670	     -1.34218487	     10.39361524	      0.18140281	     -1.05759555	      0.00000000	     -0.00000000	      4.24021125	     -2.54310984	      6.17139192	     -0.00000000	     -0.00000000	     -0.00000000	      0.00000000	      0.00000000	      0.00000000	      0.00000000	      0.00000000	      0.00000000	      0.00000000	      0.00000000	      0.00000000	     -0.00000000	     -0.00000000
      1.45000000	     -0.37805009	     -7.55246709	     88.39589357	      0.18939507	      0.87410069	     -0.59516362	    -14.18422564	      2.59717997	      0.90563719	     17.21330569	      0.30042886	      1.35110907	      0.00000000	      0.00000000	     38.30500341	      0.40442402	     -1.83819361	     12.46344663	      0.21752818	     -3.07979445	      0.00000000	      0.00000000	      4.77542955	     -3.23741287	      5.93404122	      0.00000000	      0.00000000	      0.00000000	      0.00000000	      0.00000000	      0.00000000	      0.00000000	      0.00000000	      0.00000000	      0.00000000	      0.00000000	      0.00000000	      0.00000000	      0.00000000
      1.46000000	     -1.13873540	     -7.55203381	     88.29700977	      0.18818532	      0.87549926	     -0.61583726	    -12.49784887	      1.27349882	     -0.92553288	     21.74612254	      0.37954144	     -2.69141803	      0.00000000	      0.00000000	     38.19890899	      1.14461947	     -2.29721342	     14.47363506	      0.25261259	     -4.65074651	      0.00000000	      0.00000000	      5.03501529	     -4.03596087	      5.74685218	     -0.00000000	     -0.00000000	      0.00000000	      0.00000000	      0.00000000	     -0.00000000	      0.00000000	     -0.00000000	     -0.00000000	     -0.00000000	      0.00000000	      0.00000000	      0.00000000	     -0.00000000
      1.47000000	     -1.98445892	     -7.56380608	     88.21017676	      0.18684609	      0.87726323	     -0.63621853	    -10.45077541	     -0.24004058	     -2.45127926	     26.70360690	      0.46606586	     -6.97167019	      0.00000000	      0.00000000	     38.00704376	      2.00312274	     -2.54523835	     16.30762430	      0.28462174	     -5.70245230	      0.00000000	      0.00000000	      5.26324816	     -4.90541841	      5.51100325	      0.00000000	      0.00000000	      0.00000000	      0.00000000	      0.00000000	      0.00000000	      0.00000000	      0.00000000	      0.00000000	      0.00000000	      0.00000000	      0.00000000	      0.00000000	      0.00000000
      1.48000000	     -2.88002303	     -7.49864157	     88.13405687	      0.18551928	      0.87943313	     -0.65625700	     -8.20488051	     -1.83088106	     -3.49727263	     31.92302564	      0.55716190	    -11.11963126	     -0.00000000	      0.00000000	     37.62139377	      2.91882102	     -2.80845260	     17.96001476	      0.31346139	     -6.14450200	      0.00000000	      0.00000000	      5.35127253	     -5.84818778	      5.27612936	     -0.00000000	      0.00000000	      0.00000000	      0.00000000	      0.00000000	      0.00000000	      0.00000000	     -0.00000000	     -0.00000000	     -0.00000000	      0.00000000	      0.00000000	      0.00000000	      0.00000000
      1.49000000	     -3.75992485	     -7.56910170	     88.05971150	      0.18421889	      0.88163881	     -0.67571147	     -5.51872175	     -3.34172982	     -3.94889225	     37.35358058	      0.65194297	    -14.56268853	      0.00000000	      0.00000000	     37.20823937	      3.84660077	     -2.97364469	     19.28954672	      0.33666610	     -6.11094815	      0.00000000	      0.00000000	      5.52378032	     -6.75874581	      5.04176626	      0.00000000	      0.00000000	      0.00000000	      0.00000000	      0.00000000	      0.00000000	      0.00000000	      0.00000000	      0.00000000	      0.00000000	      0.00000000	      0.00000000	      0.00000000	      0.00000000
      1.50000000	     -4.70496456	     -7.36836405	     88.00412426	      0.18298087	      0.88443282	     -0.69492439	     -3.02530514	     -4.83438441	     -3.99464078	     42.57969017	      0.74315579	    -17.15051604	      0.00000000	      0.00000000	     36.30871814	      4.84214262	     -3.38771910	     20.30360105	      0.35436469	     -5.60458100	      0.00000000	      0.00000000	      5.31771505	     -7.75664403	      4.77870246	      0.00000000	      0.00000000	      0.00000000	      0.00000000	      0.00000000	      0.00000000	      0.00000000	      0.00000000	      0.00000000	      0.00000000	      0.00000000	      0.00000000	      0.00000000	      0.00000000
      1.51000000	     -5.59128181	     -7.46001174	     87.90855914	      0.18187413	      0.88702395	     -0.71344561	      0.00546536	     -6.08264193	     -3.51799890	     47.70752765	      0.83265344	    -18.36555080	      0.00000000	      0.00000000	     35.47190716	      5.81146752	     -3.61950536	     20.82348896	      0.36343844	     -4.87192576	      0.00000000	      0.00000000	      5.39450876	     -8.66659503	      4.53030754	      0.00000000	      0.00000000	      0.00000000	      0.00000000	      0.00000000	      0.00000000	      0.00000000	      0.00000000	      0.00000000	      0.00000000	      0.00000000	      0.00000000	      0.00000000	      0.00000000
      1.52000000	     -6.39611650	     -7.51126941	     87.82548012	      0.18093196	      0.88985418	     -0.73155195	      3.03333814	     -7.06665233	     -2.78687720	     52.34997348	      0.91367940	    -18.38630542	      0.00000000	      0.00000000	     34.39930724	      6.71754941	     -3.89302727	     21.00168016	      0.36654847	     -3.98465816	      0.00000000	      0.00000000	      5.37363311	     -9.49501760	      4.27461986	      0.00000000	      0.00000000	      0.00000000	      0.00000000	      0.00000000	      0.00000000	      0.00000000	      0.00000000	      0.00000000	      0.00000000	      0.00000000	      0.00000000	      0.00000000	      0.00000000
      1.53000000	     -7.02263624	     -7.73821167	     87.72503785	      0.18014870	      0.89260195	     -0.74912133	      6.30700182	     -7.67862810	     -1.85154847	     56.47859992	      0.98573753	    -17.33196386	      0.00000000	      0.00000000	     33.34956772	      7.44659801	     -4.10156663	     20.86215871	      0.36411336	     -3.09776993	      0.00000000	      0.00000000	      5.48601273	    -10.11449660	      4.01562623	      0.00000000	      0.00000000	      0.00000000	      0.00000000	      0.00000000	      0.00000000	      0.00000000	      0.00000000	      0.00000000	      0.00000000	      0.00000000	      0.00000000	      0.00000000	      0.00000000
      1.54000000	     -7.57304224	     -7.84167457	     87.62645381	      0.17949802	      0.89574763	     -0.76650827	      9.39078579	     -8.08575592	     -0.88402939	     59.88430657	      1.04517832	    -15.62373382	      0.00000000	      0.00000000	     31.95352903	      8.14393190	     -4.20398230	     20.34017007	      0.35500294	     -2.15724950	      0.00000000	      0.00000000	      5.44196512	    -10.64860747	      3.74487230	      0.00000000	      0.00000000	      0.00000000	      0.00000000	      0.00000000	      0.00000000	      0.00000000	      0.00000000	      0.00000000	      0.00000000	      0.00000000	      0.00000000	      0.00000000	      0.00000000
      1.55000000	     -7.97306323	     -7.94494247	     87.51364956	      0.17898217	      0.89908832	     -0.78368372	     12.41972886	     -8.21558908	      0.08515633	     62.57400202	      1.09212236	    -13.47271279	     -0.00000000	      0.00000000	     30.41348696	      8.70743239	     -4.18728257	     19.56201784	      0.34142162	     -1.25392960	      0.00000000	      0.00000000	      5.38308265	    -11.00625051	      3.47929629	     -0.00000000	      0.00000000	      0.00000000	      0.00000000	      0.00000000	      0.00000000	     -0.00000000	     -0.00000000	     -0.00000000	      0.00000000	      0.00000000	      0.00000000	      0.00000000	     -0.00000000
      1.56000000	     -8.19840108	     -8.05423284	     87.37718958	      0.17863367	      0.90255350	     -0.80068896	     15.37123593	     -8.05840209	      1.01363864	     64.53858226	      1.12641075	    -11.16501272	      0.00000000	      0.00000000	     28.76694489	      9.09669501	     -4.04330923	     18.57596618	      0.32421177	     -0.40429129	      0.00000000	      0.00000000	      5.32215207	    -11.15706975	      3.24258595	      0.00000000	      0.00000000	      0.00000000	      0.00000000	      0.00000000	      0.00000000	      0.00000000	      0.00000000	      0.00000000	      0.00000000	      0.00000000	      0.00000000	      0.00000000	      0.00000000
      1.57000000	     -8.24910853	     -8.21635799	     87.22064939	      0.17843035	      0.90602722	     -0.81755664	     18.27305586	     -7.63544149	      1.86471814	     65.80512609	      1.14851611	     -8.87715932	      0.00000000	      0.00000000	     27.10135337	      9.29838920	     -3.80180779	     17.45731410	      0.30468761	      0.35035633	      0.00000000	      0.00000000	      5.32986558	    -11.10098424	      3.04729316	      0.00000000	      0.00000000	      0.00000000	      0.00000000	      0.00000000	      0.00000000	      0.00000000	      0.00000000	      0.00000000	      0.00000000	      0.00000000	      0.00000000	      0.00000000	      0.00000000
      1.58000000	     -8.15633122	     -8.42034016	     87.05783213	      0.17831283	      0.90944699	     -0.83434533	     21.07298047	     -7.03103854	      2.57551030	     66.39425760	      1.15879840	     -6.74382064	      0.00000000	      0.00000000	     25.42571960	      9.33966504	     -3.50958556	     16.23696548	      0.28338851	      1.01419656	      0.00000000	      0.00000000	      5.39159479	    -10.87218206	      2.88152447	      0.00000000	      0.00000000	      0.00000000	      0.00000000	      0.00000000	      0.00000000	      0.00000000	      0.00000000	      0.00000000	      0.00000000	      0.00000000	      0.00000000	      0.00000000	      0.00000000
      1.59000000	     -7.98596075	     -8.63907541	     86.90769945	      0.17822745	      0.91272121	     -0.85112480	     23.72681434	     -6.35722206	      3.12798637	     66.37997860	      1.15854918	     -4.69203949	      0.00000000	      0.00000000	     23.73473560	      9.29412235	     -3.17687938	     14.95180117	      0.26095816	      1.58590483	      0.00000000	      0.00000000	      5.48430342	    -10.55197917	      2.65322411	      0.00000000	      0.00000000	      0.00000000	      0.00000000	      0.00000000	      0.00000000	      0.00000000	      0.00000000	      0.00000000	      0.00000000	      0.00000000	      0.00000000	      0.00000000	      0.00000000
